<svg width="160" height="161" viewBox="0 0 160 161" fill="none" xmlns="http://www.w3.org/2000/svg">
<path d="M98.3351 0.55294C78.7549 4.00546 65.6809 22.6772 69.1334 42.2574L74.3428 71.8016L65.4796 73.3644C63.8479 73.6521 62.7584 75.2081 63.0461 76.8398L65.1299 88.6575C65.4176 90.2892 66.9735 91.3787 68.6052 91.091L157.238 75.4626C158.87 75.1749 159.959 73.6189 159.671 71.9873L157.588 60.1696C157.3 58.5379 155.744 57.4484 154.112 57.7361L145.249 59.2989L140.04 29.7547C136.587 10.1745 117.915 -2.89958 98.3351 0.55294Z" fill="#E5E5E5"/>
<path d="M117.089 106.912C108.306 108.461 99.8879 103.358 97.0031 95.2225L131.966 89.0576C132.038 97.6894 125.873 105.363 117.089 106.912Z" fill="#E5E5E5"/>
<path d="M71.6127 35.6451C48.7692 31.6172 26.9855 46.8702 22.9576 69.7138L16.8799 104.182L6.53943 102.359C4.6358 102.023 2.82049 103.294 2.48483 105.198L0.053758 118.985C-0.281903 120.889 0.989185 122.704 2.89282 123.04L106.298 141.273C108.201 141.608 110.017 140.337 110.352 138.434L112.783 124.646C113.119 122.743 111.848 120.927 109.944 120.592L99.6038 118.769L105.681 84.3002C109.709 61.4567 94.4563 39.673 71.6127 35.6451Z" fill="#CCCCCC"/>
<path d="M49.7332 159.731C39.4858 157.924 32.2934 148.971 32.3771 138.901L73.1671 146.093C69.8015 155.585 59.9807 161.538 49.7332 159.731Z" fill="#CCCCCC"/>
</svg>
